<mxfile host="app.diagrams.net" agent="Mozilla/5.0 (Windows NT 10.0; Win64; x64) AppleWebKit/537.36 (KHTML, like Gecko) Chrome/140.0.0.0 Safari/537.36" version="28.2.3">
  <diagram name="Page-1" id="GWlecSSChiI6uJgi3_ri">
    <mxGraphModel dx="1426" dy="743" grid="1" gridSize="10" guides="1" tooltips="1" connect="1" arrows="1" fold="1" page="1" pageScale="1" pageWidth="850" pageHeight="1100" math="0" shadow="0">
      <root>
        <mxCell id="0" />
        <mxCell id="1" parent="0" />
        <mxCell id="R8LedZudccDXmgbfB8iU-1" value="(1): Fade green&lt;div&gt;Wait for knock&lt;/div&gt;&lt;div&gt;Wait for flip&lt;/div&gt;" style="rhombus;whiteSpace=wrap;html=1;" parent="1" vertex="1">
          <mxGeometry x="170" y="160" width="290" height="160" as="geometry" />
        </mxCell>
        <mxCell id="R8LedZudccDXmgbfB8iU-5" value="(2): Increment knock&amp;nbsp; count,&lt;div&gt;5 taps detected?&lt;/div&gt;" style="rhombus;whiteSpace=wrap;html=1;" parent="1" vertex="1">
          <mxGeometry x="460" y="310" width="210" height="100" as="geometry" />
        </mxCell>
        <mxCell id="R8LedZudccDXmgbfB8iU-13" value="" style="endArrow=classic;html=1;rounded=0;edgeStyle=orthogonalEdgeStyle;exitX=1;exitY=0.5;exitDx=0;exitDy=0;entryX=0.5;entryY=0;entryDx=0;entryDy=0;" parent="1" source="R8LedZudccDXmgbfB8iU-1" target="R8LedZudccDXmgbfB8iU-5" edge="1">
          <mxGeometry width="50" height="50" relative="1" as="geometry">
            <mxPoint x="290" y="410" as="sourcePoint" />
            <mxPoint x="340" y="360" as="targetPoint" />
          </mxGeometry>
        </mxCell>
        <mxCell id="R8LedZudccDXmgbfB8iU-14" value="Knock detected" style="text;html=1;align=center;verticalAlign=middle;resizable=0;points=[];autosize=1;strokeColor=none;fillColor=none;" parent="1" vertex="1">
          <mxGeometry x="470" y="205" width="110" height="30" as="geometry" />
        </mxCell>
        <mxCell id="R8LedZudccDXmgbfB8iU-16" value="(3): Turn red,&lt;div&gt;Start 2&lt;span style=&quot;background-color: transparent; color: light-dark(rgb(0, 0, 0), rgb(255, 255, 255));&quot;&gt;0 s timer&lt;/span&gt;&lt;/div&gt;" style="rounded=1;whiteSpace=wrap;html=1;" parent="1" vertex="1">
          <mxGeometry x="475" y="440" width="180" height="40" as="geometry" />
        </mxCell>
        <mxCell id="R8LedZudccDXmgbfB8iU-17" value="(0): Start&#xa;NeoPixel off&#xa;Color = green" style="shape=parallelogram;perimeter=parallelogramPerimeter;whiteSpace=wrap;html=1;fixedSize=1;" parent="1" vertex="1">
          <mxGeometry x="235" y="20" width="160" height="60" as="geometry" />
        </mxCell>
        <mxCell id="R8LedZudccDXmgbfB8iU-20" value="No" style="text;html=1;align=center;verticalAlign=middle;resizable=0;points=[];autosize=1;strokeColor=none;fillColor=none;" parent="1" vertex="1">
          <mxGeometry x="655" y="370" width="40" height="30" as="geometry" />
        </mxCell>
        <mxCell id="R8LedZudccDXmgbfB8iU-21" value="" style="endArrow=classic;html=1;rounded=0;exitX=0.5;exitY=1;exitDx=0;exitDy=0;" parent="1" source="R8LedZudccDXmgbfB8iU-5" target="R8LedZudccDXmgbfB8iU-16" edge="1">
          <mxGeometry width="50" height="50" relative="1" as="geometry">
            <mxPoint x="400" y="410" as="sourcePoint" />
            <mxPoint x="450" y="360" as="targetPoint" />
          </mxGeometry>
        </mxCell>
        <mxCell id="R8LedZudccDXmgbfB8iU-22" value="Yes" style="text;html=1;align=center;verticalAlign=middle;resizable=0;points=[];autosize=1;strokeColor=none;fillColor=none;" parent="1" vertex="1">
          <mxGeometry x="560" y="410" width="40" height="30" as="geometry" />
        </mxCell>
        <mxCell id="R8LedZudccDXmgbfB8iU-24" value="20 seconds pass" style="shape=process;whiteSpace=wrap;html=1;backgroundOutline=1;" parent="1" vertex="1">
          <mxGeometry x="487.5" y="500" width="155" height="60" as="geometry" />
        </mxCell>
        <mxCell id="R8LedZudccDXmgbfB8iU-26" value="" style="endArrow=classic;html=1;rounded=0;exitX=0.5;exitY=1;exitDx=0;exitDy=0;entryX=0.5;entryY=0;entryDx=0;entryDy=0;" parent="1" source="R8LedZudccDXmgbfB8iU-16" target="R8LedZudccDXmgbfB8iU-24" edge="1">
          <mxGeometry width="50" height="50" relative="1" as="geometry">
            <mxPoint x="400" y="410" as="sourcePoint" />
            <mxPoint x="450" y="360" as="targetPoint" />
          </mxGeometry>
        </mxCell>
        <mxCell id="R8LedZudccDXmgbfB8iU-27" value="Reset knock count" style="rounded=1;whiteSpace=wrap;html=1;" parent="1" vertex="1">
          <mxGeometry x="255" y="380" width="120" height="30" as="geometry" />
        </mxCell>
        <mxCell id="R8LedZudccDXmgbfB8iU-28" value="" style="endArrow=classic;html=1;rounded=0;exitX=0.5;exitY=1;exitDx=0;exitDy=0;entryX=0.5;entryY=0;entryDx=0;entryDy=0;" parent="1" source="R8LedZudccDXmgbfB8iU-17" target="R8LedZudccDXmgbfB8iU-1" edge="1">
          <mxGeometry width="50" height="50" relative="1" as="geometry">
            <mxPoint x="400" y="410" as="sourcePoint" />
            <mxPoint x="390" y="90" as="targetPoint" />
          </mxGeometry>
        </mxCell>
        <mxCell id="R8LedZudccDXmgbfB8iU-29" value="(4): Turn blue,&lt;div&gt;Start 20 s timer&lt;/div&gt;" style="rounded=1;whiteSpace=wrap;html=1;" parent="1" vertex="1">
          <mxGeometry x="225" y="440" width="180" height="40" as="geometry" />
        </mxCell>
        <mxCell id="R8LedZudccDXmgbfB8iU-31" value="" style="endArrow=classic;html=1;rounded=0;exitX=0.5;exitY=1;exitDx=0;exitDy=0;entryX=0.5;entryY=0;entryDx=0;entryDy=0;" parent="1" source="R8LedZudccDXmgbfB8iU-1" target="R8LedZudccDXmgbfB8iU-27" edge="1">
          <mxGeometry width="50" height="50" relative="1" as="geometry">
            <mxPoint x="400" y="410" as="sourcePoint" />
            <mxPoint x="309" y="430" as="targetPoint" />
          </mxGeometry>
        </mxCell>
        <mxCell id="R8LedZudccDXmgbfB8iU-32" value="Flip detected" style="text;html=1;align=center;verticalAlign=middle;resizable=0;points=[];autosize=1;strokeColor=none;fillColor=none;" parent="1" vertex="1">
          <mxGeometry x="220" y="330" width="90" height="30" as="geometry" />
        </mxCell>
        <mxCell id="R8LedZudccDXmgbfB8iU-33" value="" style="endArrow=classic;html=1;rounded=0;exitX=0.5;exitY=1;exitDx=0;exitDy=0;entryX=0.5;entryY=0;entryDx=0;entryDy=0;" parent="1" source="R8LedZudccDXmgbfB8iU-27" target="R8LedZudccDXmgbfB8iU-29" edge="1">
          <mxGeometry width="50" height="50" relative="1" as="geometry">
            <mxPoint x="400" y="410" as="sourcePoint" />
            <mxPoint x="450" y="360" as="targetPoint" />
          </mxGeometry>
        </mxCell>
        <mxCell id="R8LedZudccDXmgbfB8iU-37" value="" style="endArrow=classic;html=1;rounded=0;edgeStyle=orthogonalEdgeStyle;entryX=1;entryY=0.5;entryDx=0;entryDy=0;exitX=1;exitY=0.5;exitDx=0;exitDy=0;" parent="1" target="R8LedZudccDXmgbfB8iU-17" edge="1" source="R8LedZudccDXmgbfB8iU-24">
          <mxGeometry width="50" height="50" relative="1" as="geometry">
            <mxPoint x="700" y="360" as="sourcePoint" />
            <mxPoint x="450" y="260" as="targetPoint" />
            <Array as="points">
              <mxPoint x="740" y="530" />
              <mxPoint x="740" y="50" />
            </Array>
          </mxGeometry>
        </mxCell>
        <mxCell id="R8LedZudccDXmgbfB8iU-39" value="" style="endArrow=classic;html=1;rounded=0;edgeStyle=orthogonalEdgeStyle;exitX=0.5;exitY=1;exitDx=0;exitDy=0;entryX=0;entryY=0.5;entryDx=0;entryDy=0;" parent="1" source="R8LedZudccDXmgbfB8iU-29" target="R8LedZudccDXmgbfB8iU-24" edge="1">
          <mxGeometry width="50" height="50" relative="1" as="geometry">
            <mxPoint x="400" y="310" as="sourcePoint" />
            <mxPoint x="450" y="260" as="targetPoint" />
          </mxGeometry>
        </mxCell>
        <mxCell id="JjmcgU78wdONeZ5t8ThH-1" value="" style="endArrow=classic;html=1;rounded=0;edgeStyle=orthogonalEdgeStyle;exitX=1;exitY=0.5;exitDx=0;exitDy=0;" edge="1" parent="1" source="R8LedZudccDXmgbfB8iU-5">
          <mxGeometry width="50" height="50" relative="1" as="geometry">
            <mxPoint x="400" y="310" as="sourcePoint" />
            <mxPoint x="320" y="120" as="targetPoint" />
            <Array as="points">
              <mxPoint x="680" y="360" />
              <mxPoint x="680" y="120" />
              <mxPoint x="380" y="120" />
            </Array>
          </mxGeometry>
        </mxCell>
      </root>
    </mxGraphModel>
  </diagram>
</mxfile>
